<svg xmlns="http://www.w3.org/2000/svg" version="1.1" xmlns:xlink="http://www.w3.org/1999/xlink" xmlns:svgjs="http://svgjs.dev/svgjs" viewBox="0 0 15.708644134222814 3.1991927841125243"><g transform="matrix(1,0,0,1,3.2392426760968487,0.9748405326812621)"><g><path d=" M 1.175537109375 0.94189453125 Q 1.175537109375 0.995361328125 1.1572265625 1.0400390625 Q 1.138916015625 1.084716796875 1.1063232421875 1.1209716796875 Q 1.07373046875 1.1572265625 1.0283203125 1.1846923828125 Q 0.98291015625 1.212158203125 0.9290771484375 1.23046875 Q 0.875244140625 1.248779296875 0.814453125 1.25830078125 Q 0.753662109375 1.267822265625 0.690673828125 1.267822265625 Q 0.613037109375 1.267822265625 0.5335693359375 1.253173828125 Q 0.4541015625 1.238525390625 0.3812255859375 1.2081298828125 Q 0.308349609375 1.177734375 0.24462890625 1.1312255859375 Q 0.180908203125 1.084716796875 0.1336669921875 1.02099609375 Q 0.08642578125 0.957275390625 0.059326171875 0.8759765625 Q 0.0322265625 0.794677734375 0.0322265625 0.6943359375 Q 0.0322265625 0.582275390625 0.059326171875 0.4918212890625 Q 0.08642578125 0.4013671875 0.13330078125 0.3314208984375 Q 0.18017578125 0.261474609375 0.243896484375 0.2105712890625 Q 0.3076171875 0.15966796875 0.380126953125 0.1270751953125 Q 0.45263671875 0.094482421875 0.531005859375 0.0787353515625 Q 0.609375 0.06298828125 0.686279296875 0.06298828125 Q 0.778564453125 0.06298828125 0.8631591796875 0.0845947265625 Q 0.94775390625 0.106201171875 1.0125732421875 0.1468505859375 Q 1.077392578125 0.1875 1.1158447265625 0.2464599609375 Q 1.154296875 0.305419921875 1.154296875 0.37939453125 Q 1.154296875 0.40869140625 1.1451416015625 0.43212890625 Q 1.135986328125 0.45556640625 1.1195068359375 0.4716796875 Q 1.10302734375 0.48779296875 1.0806884765625 0.49658203125 Q 1.058349609375 0.50537109375 1.03271484375 0.50537109375 Q 1.010009765625 0.50537109375 0.9873046875 0.498046875 Q 0.964599609375 0.49072265625 0.944091796875 0.4735107421875 Q 0.923583984375 0.456298828125 0.907470703125 0.4288330078125 Q 0.891357421875 0.4013671875 0.8818359375 0.36181640625 Q 0.875244140625 0.333251953125 0.8587646484375 0.311279296875 Q 0.84228515625 0.289306640625 0.8214111328125 0.2742919921875 Q 0.800537109375 0.25927734375 0.778564453125 0.251953125 Q 0.756591796875 0.24462890625 0.739013671875 0.24462890625 Q 0.7119140625 0.24462890625 0.680419921875 0.261474609375 Q 0.64892578125 0.2783203125 0.6221923828125 0.3131103515625 Q 0.595458984375 0.347900390625 0.577880859375 0.4013671875 Q 0.560302734375 0.454833984375 0.560302734375 0.528076171875 Q 0.560302734375 0.624755859375 0.5701904296875 0.6983642578125 Q 0.580078125 0.77197265625 0.59619140625 0.825439453125 Q 0.6123046875 0.87890625 0.6331787109375 0.9144287109375 Q 0.654052734375 0.949951171875 0.6763916015625 0.9708251953125 Q 0.69873046875 0.99169921875 0.720703125 1.00048828125 Q 0.74267578125 1.00927734375 0.760986328125 1.00927734375 Q 0.78369140625 1.00927734375 0.7979736328125 0.9990234375 Q 0.812255859375 0.98876953125 0.812255859375 0.974853515625 Q 0.812255859375 0.932373046875 0.8023681640625 0.908935546875 Q 0.79248046875 0.885498046875 0.77783203125 0.8726806640625 Q 0.76318359375 0.85986328125 0.74560546875 0.8543701171875 Q 0.72802734375 0.848876953125 0.71337890625 0.8419189453125 Q 0.69873046875 0.8349609375 0.6888427734375 0.822509765625 Q 0.678955078125 0.81005859375 0.678955078125 0.784423828125 Q 0.678955078125 0.727294921875 0.7027587890625 0.69287109375 Q 0.7265625 0.658447265625 0.765380859375 0.64013671875 Q 0.80419921875 0.621826171875 0.85400390625 0.6163330078125 Q 0.90380859375 0.61083984375 0.95654296875 0.61083984375 Q 1.042236328125 0.61083984375 1.097900390625 0.6192626953125 Q 1.153564453125 0.627685546875 1.1861572265625 0.6427001953125 Q 1.21875 0.65771484375 1.2315673828125 0.67822265625 Q 1.244384765625 0.69873046875 1.244384765625 0.722900390625 Q 1.244384765625 0.7587890625 1.2392578125 0.7796630859375 Q 1.234130859375 0.800537109375 1.2264404296875 0.813720703125 Q 1.21875 0.826904296875 1.2099609375 0.8360595703125 Q 1.201171875 0.84521484375 1.1934814453125 0.8572998046875 Q 1.185791015625 0.869384765625 1.1806640625 0.8887939453125 Q 1.175537109375 0.908203125 1.175537109375 0.94189453125 M 1.8083496093750002 1.267822265625 Q 1.7211914062500002 1.267822265625 1.6483154296875002 1.247314453125 Q 1.5754394531250002 1.226806640625 1.5172119140625002 1.1912841796875 Q 1.4589843750000002 1.15576171875 1.4150390625000002 1.107421875 Q 1.3710937500000002 1.05908203125 1.3417968750000002 1.0030517578125 Q 1.3125000000000002 0.947021484375 1.2978515625000002 0.88623046875 Q 1.2832031250000002 0.825439453125 1.2832031250000002 0.7646484375 Q 1.2832031250000002 0.702392578125 1.2989501953125002 0.6419677734375 Q 1.3146972656250002 0.58154296875 1.3465576171875002 0.52734375 Q 1.3784179687500002 0.47314453125 1.4260253906250002 0.427734375 Q 1.4736328125000002 0.38232421875 1.5377197265625002 0.349365234375 Q 1.6018066406250002 0.31640625 1.6820068359375002 0.2977294921875 Q 1.7622070312500002 0.279052734375 1.8588867187500002 0.279052734375 Q 1.9438476562500002 0.279052734375 2.0145263671875 0.298095703125 Q 2.085205078125 0.317138671875 2.142333984375 0.3504638671875 Q 2.199462890625 0.3837890625 2.2423095703125 0.42919921875 Q 2.28515625 0.474609375 2.313720703125 0.528076171875 Q 2.34228515625 0.58154296875 2.3565673828125 0.640869140625 Q 2.370849609375 0.7001953125 2.370849609375 0.76025390625 Q 2.370849609375 0.822509765625 2.35546875 0.884765625 Q 2.340087890625 0.947021484375 2.3089599609375 1.00341796875 Q 2.27783203125 1.059814453125 2.23095703125 1.108154296875 Q 2.18408203125 1.156494140625 2.1214599609375 1.1920166015625 Q 2.058837890625 1.2275390625 1.9804687500000002 1.2476806640625 Q 1.9020996093750002 1.267822265625 1.8083496093750002 1.267822265625 M 1.8413085937500002 1.080322265625 Q 1.8654785156250002 1.080322265625 1.8819580078125002 1.0660400390625 Q 1.8984375000000002 1.0517578125 1.9086914062500002 1.024658203125 Q 1.9189453125000002 0.99755859375 1.9233398437500002 0.9591064453125 Q 1.9277343750000002 0.920654296875 1.9277343750000002 0.873046875 Q 1.9277343750000002 0.831298828125 1.9270019531250002 0.7847900390625 Q 1.9262695312500002 0.73828125 1.9233398437500002 0.6932373046875 Q 1.9204101562500002 0.648193359375 1.9138183593750002 0.607177734375 Q 1.9072265625000002 0.566162109375 1.8951416015625002 0.53466796875 Q 1.8830566406250002 0.503173828125 1.8647460937500002 0.48486328125 Q 1.8464355468750002 0.466552734375 1.8200683593750002 0.466552734375 Q 1.7944335937500002 0.466552734375 1.7764892578125002 0.4808349609375 Q 1.7585449218750002 0.4951171875 1.7468261718750002 0.520751953125 Q 1.7351074218750002 0.54638671875 1.7296142578125002 0.582275390625 Q 1.7241210937500002 0.6181640625 1.7241210937500002 0.661376953125 Q 1.7241210937500002 0.70166015625 1.7255859375000002 0.74853515625 Q 1.7270507812500002 0.79541015625 1.7314453125000002 0.8419189453125 Q 1.7358398437500002 0.888427734375 1.7442626953125002 0.931640625 Q 1.7526855468750002 0.974853515625 1.7655029296875002 1.0078125 Q 1.7783203125000002 1.040771484375 1.7969970703125002 1.060546875 Q 1.8156738281250002 1.080322265625 1.8413085937500002 1.080322265625 M 2.4411621093750004 0.797607421875 Q 2.4411621093750004 0.759521484375 2.4536132812500004 0.7353515625 Q 2.4660644531250004 0.711181640625 2.4843750000000004 0.697265625 Q 2.5026855468750004 0.683349609375 2.5242919921875004 0.6778564453125 Q 2.5458984375000004 0.67236328125 2.5649414062500004 0.67236328125 L 3.1699218750000004 0.67236328125 Q 3.1904296875000004 0.67236328125 3.2120361328125004 0.6778564453125 Q 3.2336425781250004 0.683349609375 3.2515869140625004 0.697265625 Q 3.2695312500000004 0.711181640625 3.2812500000000004 0.7353515625 Q 3.2929687500000004 0.759521484375 3.2929687500000004 0.797607421875 Q 3.2929687500000004 0.835693359375 3.2812500000000004 0.85986328125 Q 3.2695312500000004 0.884033203125 3.2515869140625004 0.89794921875 Q 3.2336425781250004 0.911865234375 3.2120361328125004 0.9173583984375 Q 3.1904296875000004 0.9228515625 3.1699218750000004 0.9228515625 L 2.5649414062500004 0.9228515625 Q 2.5458984375000004 0.9228515625 2.5242919921875004 0.9173583984375 Q 2.5026855468750004 0.911865234375 2.4843750000000004 0.89794921875 Q 2.4660644531250004 0.884033203125 2.4536132812500004 0.85986328125 Q 2.4411621093750004 0.835693359375 2.4411621093750004 0.797607421875 M 4.506591796875 0.94189453125 Q 4.506591796875 0.995361328125 4.48828125 1.0400390625 Q 4.469970703125 1.084716796875 4.4373779296875 1.1209716796875 Q 4.40478515625 1.1572265625 4.359375 1.1846923828125 Q 4.31396484375 1.212158203125 4.2601318359375 1.23046875 Q 4.206298828125 1.248779296875 4.1455078125 1.25830078125 Q 4.084716796875 1.267822265625 4.021728515625 1.267822265625 Q 3.9440917968750004 1.267822265625 3.8646240234375004 1.253173828125 Q 3.7851562500000004 1.238525390625 3.7122802734375004 1.2081298828125 Q 3.6394042968750004 1.177734375 3.5756835937500004 1.1312255859375 Q 3.5119628906250004 1.084716796875 3.4647216796875004 1.02099609375 Q 3.4174804687500004 0.957275390625 3.3903808593750004 0.8759765625 Q 3.3632812500000004 0.794677734375 3.3632812500000004 0.6943359375 Q 3.3632812500000004 0.582275390625 3.3903808593750004 0.4918212890625 Q 3.4174804687500004 0.4013671875 3.4643554687500004 0.3314208984375 Q 3.5112304687500004 0.261474609375 3.5749511718750004 0.2105712890625 Q 3.6386718750000004 0.15966796875 3.7111816406250004 0.1270751953125 Q 3.7836914062500004 0.094482421875 3.8620605468750004 0.0787353515625 Q 3.9404296875000004 0.06298828125 4.017333984375 0.06298828125 Q 4.109619140625 0.06298828125 4.1942138671875 0.0845947265625 Q 4.27880859375 0.106201171875 4.3436279296875 0.1468505859375 Q 4.408447265625 0.1875 4.4468994140625 0.2464599609375 Q 4.4853515625 0.305419921875 4.4853515625 0.37939453125 Q 4.4853515625 0.40869140625 4.4761962890625 0.43212890625 Q 4.467041015625 0.45556640625 4.4505615234375 0.4716796875 Q 4.43408203125 0.48779296875 4.4117431640625 0.49658203125 Q 4.389404296875 0.50537109375 4.36376953125 0.50537109375 Q 4.341064453125 0.50537109375 4.318359375 0.498046875 Q 4.295654296875 0.49072265625 4.275146484375 0.4735107421875 Q 4.254638671875 0.456298828125 4.238525390625 0.4288330078125 Q 4.222412109375 0.4013671875 4.212890625 0.36181640625 Q 4.206298828125 0.333251953125 4.1898193359375 0.311279296875 Q 4.17333984375 0.289306640625 4.1524658203125 0.2742919921875 Q 4.131591796875 0.25927734375 4.109619140625 0.251953125 Q 4.087646484375 0.24462890625 4.070068359375 0.24462890625 Q 4.04296875 0.24462890625 4.011474609375 0.261474609375 Q 3.9799804687500004 0.2783203125 3.9532470703125004 0.3131103515625 Q 3.9265136718750004 0.347900390625 3.9089355468750004 0.4013671875 Q 3.8913574218750004 0.454833984375 3.8913574218750004 0.528076171875 Q 3.8913574218750004 0.624755859375 3.9012451171875004 0.6983642578125 Q 3.9111328125000004 0.77197265625 3.9272460937500004 0.825439453125 Q 3.9433593750000004 0.87890625 3.9642333984375004 0.9144287109375 Q 3.9851074218750004 0.949951171875 4.0074462890625 0.9708251953125 Q 4.02978515625 0.99169921875 4.0517578125 1.00048828125 Q 4.07373046875 1.00927734375 4.092041015625 1.00927734375 Q 4.11474609375 1.00927734375 4.1290283203125 0.9990234375 Q 4.143310546875 0.98876953125 4.143310546875 0.974853515625 Q 4.143310546875 0.932373046875 4.1334228515625 0.908935546875 Q 4.12353515625 0.885498046875 4.10888671875 0.8726806640625 Q 4.09423828125 0.85986328125 4.07666015625 0.8543701171875 Q 4.05908203125 0.848876953125 4.04443359375 0.8419189453125 Q 4.02978515625 0.8349609375 4.0198974609375 0.822509765625 Q 4.010009765625 0.81005859375 4.010009765625 0.784423828125 Q 4.010009765625 0.727294921875 4.0338134765625 0.69287109375 Q 4.0576171875 0.658447265625 4.096435546875 0.64013671875 Q 4.13525390625 0.621826171875 4.18505859375 0.6163330078125 Q 4.23486328125 0.61083984375 4.28759765625 0.61083984375 Q 4.373291015625 0.61083984375 4.428955078125 0.6192626953125 Q 4.484619140625 0.627685546875 4.5172119140625 0.6427001953125 Q 4.5498046875 0.65771484375 4.5626220703125 0.67822265625 Q 4.575439453125 0.69873046875 4.575439453125 0.722900390625 Q 4.575439453125 0.7587890625 4.5703125 0.7796630859375 Q 4.565185546875 0.800537109375 4.5574951171875 0.813720703125 Q 4.5498046875 0.826904296875 4.541015625 0.8360595703125 Q 4.5322265625 0.84521484375 4.5245361328125 0.8572998046875 Q 4.516845703125 0.869384765625 4.51171875 0.8887939453125 Q 4.506591796875 0.908203125 4.506591796875 0.94189453125 M 5.139404296875001 1.267822265625 Q 5.052246093750001 1.267822265625 4.979370117187501 1.247314453125 Q 4.906494140625001 1.226806640625 4.848266601562501 1.1912841796875 Q 4.790039062500001 1.15576171875 4.746093750000001 1.107421875 Q 4.702148437500001 1.05908203125 4.672851562500001 1.0030517578125 Q 4.643554687500001 0.947021484375 4.628906250000001 0.88623046875 Q 4.614257812500001 0.825439453125 4.614257812500001 0.7646484375 Q 4.614257812500001 0.702392578125 4.630004882812501 0.6419677734375 Q 4.645751953125001 0.58154296875 4.677612304687501 0.52734375 Q 4.709472656250001 0.47314453125 4.757080078125001 0.427734375 Q 4.804687500000001 0.38232421875 4.868774414062501 0.349365234375 Q 4.932861328125001 0.31640625 5.013061523437501 0.2977294921875 Q 5.093261718750001 0.279052734375 5.189941406250001 0.279052734375 Q 5.274902343750001 0.279052734375 5.345581054687501 0.298095703125 Q 5.416259765625001 0.317138671875 5.473388671875001 0.3504638671875 Q 5.530517578125001 0.3837890625 5.573364257812501 0.42919921875 Q 5.616210937500001 0.474609375 5.644775390625001 0.528076171875 Q 5.673339843750001 0.58154296875 5.687622070312501 0.640869140625 Q 5.701904296875001 0.7001953125 5.701904296875001 0.76025390625 Q 5.701904296875001 0.822509765625 5.686523437500001 0.884765625 Q 5.671142578125001 0.947021484375 5.640014648437501 1.00341796875 Q 5.608886718750001 1.059814453125 5.562011718750001 1.108154296875 Q 5.515136718750001 1.156494140625 5.452514648437501 1.1920166015625 Q 5.389892578125001 1.2275390625 5.311523437500001 1.2476806640625 Q 5.233154296875001 1.267822265625 5.139404296875001 1.267822265625 M 5.172363281250001 1.080322265625 Q 5.196533203125001 1.080322265625 5.213012695312501 1.0660400390625 Q 5.229492187500001 1.0517578125 5.239746093750001 1.024658203125 Q 5.250000000000001 0.99755859375 5.254394531250001 0.9591064453125 Q 5.258789062500001 0.920654296875 5.258789062500001 0.873046875 Q 5.258789062500001 0.831298828125 5.258056640625001 0.7847900390625 Q 5.257324218750001 0.73828125 5.254394531250001 0.6932373046875 Q 5.251464843750001 0.648193359375 5.244873046875001 0.607177734375 Q 5.238281250000001 0.566162109375 5.226196289062501 0.53466796875 Q 5.214111328125001 0.503173828125 5.195800781250001 0.48486328125 Q 5.177490234375001 0.466552734375 5.151123046875001 0.466552734375 Q 5.125488281250001 0.466552734375 5.107543945312501 0.4808349609375 Q 5.089599609375001 0.4951171875 5.077880859375001 0.520751953125 Q 5.066162109375001 0.54638671875 5.060668945312501 0.582275390625 Q 5.055175781250001 0.6181640625 5.055175781250001 0.661376953125 Q 5.055175781250001 0.70166015625 5.056640625000001 0.74853515625 Q 5.058105468750001 0.79541015625 5.062500000000001 0.8419189453125 Q 5.066894531250001 0.888427734375 5.075317382812501 0.931640625 Q 5.083740234375001 0.974853515625 5.096557617187501 1.0078125 Q 5.109375000000001 1.040771484375 5.128051757812501 1.060546875 Q 5.146728515625001 1.080322265625 5.172363281250001 1.080322265625 M 6.555908203125001 0.582275390625 Q 6.555908203125001 0.55224609375 6.547851562500001 0.535400390625 Q 6.539794921875001 0.5185546875 6.527709960937501 0.5101318359375 Q 6.515625000000001 0.501708984375 6.501708984375001 0.4984130859375 Q 6.487792968750001 0.4951171875 6.475708007812501 0.491455078125 Q 6.463623046875001 0.48779296875 6.455566406250001 0.4808349609375 Q 6.447509765625001 0.473876953125 6.447509765625001 0.457763671875 Q 6.447509765625001 0.374267578125 6.533935546875001 0.3372802734375 Q 6.620361328125001 0.30029296875 6.783691406250001 0.30029296875 Q 6.838623046875001 0.30029296875 6.875976562500001 0.310546875 Q 6.913330078125001 0.32080078125 6.937866210937501 0.339111328125 Q 6.962402343750001 0.357421875 6.975952148437501 0.383056640625 Q 6.989501953125001 0.40869140625 6.995727539062501 0.4398193359375 Q 7.001953125000001 0.470947265625 7.003051757812501 0.506103515625 Q 7.004150390625001 0.541259765625 7.004150390625001 0.579345703125 L 7.004150390625001 0.971923828125 Q 7.004150390625001 1.001220703125 7.011840820312501 1.017333984375 Q 7.019531250000001 1.033447265625 7.031616210937501 1.0418701171875 Q 7.043701171875001 1.05029296875 7.057250976562501 1.05322265625 Q 7.070800781250001 1.05615234375 7.082885742187501 1.059814453125 Q 7.094970703125001 1.0634765625 7.102661132812501 1.0704345703125 Q 7.110351562500001 1.077392578125 7.110351562500001 1.093505859375 Q 7.110351562500001 1.177001953125 7.025756835937501 1.2139892578125 Q 6.941162109375001 1.2509765625 6.783691406250001 1.2509765625 Q 6.744873046875001 1.2509765625 6.714843750000001 1.2451171875 Q 6.684814453125001 1.2392578125 6.662475585937501 1.229736328125 Q 6.640136718750001 1.22021484375 6.624023437500001 1.2081298828125 Q 6.607910156250001 1.196044921875 6.596923828125001 1.182861328125 Q 6.571289062500001 1.153564453125 6.564697265625001 1.11474609375 Q 6.526611328125001 1.157958984375 6.474609375000001 1.191650390625 Q 6.452636718750001 1.206298828125 6.424804687500001 1.2198486328125 Q 6.396972656250001 1.2333984375 6.364013671875001 1.2440185546875 Q 6.331054687500001 1.254638671875 6.292602539062501 1.26123046875 Q 6.254150390625001 1.267822265625 6.210937500000001 1.267822265625 Q 6.130371093750001 1.267822265625 6.071777343750001 1.2476806640625 Q 6.013183593750001 1.2275390625 5.972534179687501 1.19384765625 Q 5.931884765625001 1.16015625 5.906982421875001 1.115478515625 Q 5.882080078125001 1.07080078125 5.868164062500001 1.021728515625 Q 5.854248046875001 0.97265625 5.849487304687501 0.9224853515625 Q 5.844726562500001 0.872314453125 5.844726562500001 0.826904296875 L 5.844726562500001 0.5859375 Q 5.844726562500001 0.55517578125 5.836669921875001 0.5379638671875 Q 5.828613281250001 0.520751953125 5.816162109375001 0.5115966796875 Q 5.803710937500001 0.50244140625 5.789794921875001 0.4991455078125 Q 5.775878906250001 0.495849609375 5.763427734375001 0.4918212890625 Q 5.750976562500001 0.48779296875 5.742919921875001 0.4808349609375 Q 5.734863281250001 0.473876953125 5.734863281250001 0.457763671875 Q 5.734863281250001 0.374267578125 5.821289062500001 0.3372802734375 Q 5.907714843750001 0.30029296875 6.071044921875001 0.30029296875 Q 6.143554687500001 0.30029296875 6.186767578125001 0.31787109375 Q 6.229980468750001 0.33544921875 6.252685546875001 0.3658447265625 Q 6.275390625000001 0.396240234375 6.281982421875001 0.43798828125 Q 6.288574218750001 0.479736328125 6.288574218750001 0.528076171875 L 6.288574218750001 0.889892578125 Q 6.288574218750001 0.935302734375 6.295532226562501 0.9708251953125 Q 6.302490234375001 1.00634765625 6.318969726562501 1.03125 Q 6.335449218750001 1.05615234375 6.362548828125001 1.0689697265625 Q 6.389648437500001 1.081787109375 6.429931640625001 1.081787109375 Q 6.455566406250001 1.081787109375 6.478271484375001 1.07373046875 Q 6.500976562500001 1.065673828125 6.517822265625001 1.051025390625 Q 6.534667968750001 1.036376953125 6.544555664062501 1.0162353515625 Q 6.554443359375001 0.99609375 6.554443359375001 0.971923828125 L 6.555908203125001 0.582275390625 M 7.711669921875001 0.967529296875 Q 7.711669921875001 0.99755859375 7.719726562500001 1.014404296875 Q 7.727783203125001 1.03125 7.739868164062501 1.0396728515625 Q 7.751953125000001 1.048095703125 7.765869140625001 1.0513916015625 Q 7.779785156250001 1.0546875 7.791870117187501 1.058349609375 Q 7.803955078125001 1.06201171875 7.812011718750001 1.0689697265625 Q 7.820068359375001 1.075927734375 7.820068359375001 1.092041015625 Q 7.820068359375001 1.175537109375 7.733642578125001 1.2125244140625 Q 7.647216796875001 1.24951171875 7.483886718750001 1.24951171875 Q 7.404785156250001 1.24951171875 7.343994140625001 1.24072265625 Q 7.283203125000001 1.23193359375 7.241455078125001 1.2125244140625 Q 7.199707031250001 1.193115234375 7.178100585937501 1.1634521484375 Q 7.156494140625001 1.1337890625 7.156494140625001 1.092041015625 Q 7.156494140625001 1.075927734375 7.164550781250001 1.0689697265625 Q 7.172607421875001 1.06201171875 7.184326171875001 1.058349609375 Q 7.196044921875001 1.0546875 7.209960937500001 1.0517578125 Q 7.223876953125001 1.048828125 7.235595703125001 1.0404052734375 Q 7.247314453125001 1.031982421875 7.255371093750001 1.0162353515625 Q 7.263427734375001 1.00048828125 7.263427734375001 0.970458984375 L 7.263427734375001 0.579345703125 Q 7.263427734375001 0.550048828125 7.255371093750001 0.533935546875 Q 7.247314453125001 0.517822265625 7.235595703125001 0.5093994140625 Q 7.223876953125001 0.5009765625 7.209960937500001 0.498046875 Q 7.196044921875001 0.4951171875 7.184326171875001 0.491455078125 Q 7.172607421875001 0.48779296875 7.164550781250001 0.4808349609375 Q 7.156494140625001 0.473876953125 7.156494140625001 0.457763671875 Q 7.156494140625001 0.416015625 7.178100585937501 0.3863525390625 Q 7.199707031250001 0.356689453125 7.241455078125001 0.3372802734375 Q 7.283203125000001 0.31787109375 7.343994140625001 0.30908203125 Q 7.404785156250001 0.30029296875 7.483886718750001 0.30029296875 Q 7.556396484375001 0.30029296875 7.599975585937501 0.3145751953125 Q 7.643554687500001 0.328857421875 7.668457031250001 0.356689453125 Q 7.688964843750001 0.343505859375 7.710937500000001 0.3314208984375 Q 7.732910156250001 0.3193359375 7.757812500000001 0.3101806640625 Q 7.782714843750001 0.301025390625 7.812011718750001 0.2958984375 Q 7.841308593750001 0.290771484375 7.876464843750001 0.290771484375 Q 7.920410156250001 0.290771484375 7.961059570312501 0.2999267578125 Q 8.001708984375 0.30908203125 8.033203125 0.3299560546875 Q 8.064697265625 0.350830078125 8.0833740234375 0.3841552734375 Q 8.10205078125 0.41748046875 8.10205078125 0.466552734375 Q 8.10205078125 0.498779296875 8.091064453125 0.529541015625 Q 8.080078125 0.560302734375 8.0584716796875 0.5841064453125 Q 8.036865234375 0.60791015625 8.0042724609375 0.62255859375 Q 7.971679687500001 0.63720703125 7.929199218750001 0.63720703125 Q 7.886718750000001 0.63720703125 7.862548828125001 0.624755859375 Q 7.838378906250001 0.6123046875 7.825195312500001 0.593994140625 Q 7.812011718750001 0.57568359375 7.805786132812501 0.5540771484375 Q 7.799560546875001 0.532470703125 7.792602539062501 0.51416015625 Q 7.785644531250001 0.495849609375 7.774291992187501 0.4833984375 Q 7.762939453125001 0.470947265625 7.740234375000001 0.470947265625 Q 7.717529296875001 0.470947265625 7.710205078125001 0.4764404296875 Q 7.702880859375001 0.48193359375 7.702880859375001 0.4921875 Q 7.702880859375001 0.50537109375 7.708007812500001 0.52587890625 Q 7.713134765625001 0.54638671875 7.713134765625001 0.57568359375 L 7.711669921875001 0.967529296875 M 9.279052734375 0.369140625 Q 9.29150390625 0.361083984375 9.3116455078125 0.3460693359375 Q 9.331787109375 0.3310546875 9.371337890625 0.3160400390625 Q 9.410888671875 0.301025390625 9.47607421875 0.2900390625 Q 9.541259765625 0.279052734375 9.643798828125 0.279052734375 Q 9.720703125 0.279052734375 9.77783203125 0.29736328125 Q 9.8349609375 0.315673828125 9.8756103515625 0.34716796875 Q 9.916259765625 0.378662109375 9.942626953125 0.4215087890625 Q 9.968994140625 0.46435546875 9.984375 0.5137939453125 Q 9.999755859375 0.563232421875 10.005615234375 0.61669921875 Q 10.011474609375 0.670166015625 10.011474609375 0.722900390625 L 10.011474609375 0.730224609375 Q 10.0107421875 0.8173828125 10.0103759765625 0.8646240234375 Q 10.010009765625 0.911865234375 10.010009765625 0.933837890625 Q 10.010009765625 0.955810546875 10.010009765625 0.9598388671875 Q 10.010009765625 0.9638671875 10.010009765625 0.9638671875 Q 10.010009765625 0.99462890625 10.01806640625 1.0118408203125 Q 10.026123046875 1.029052734375 10.0382080078125 1.0382080078125 Q 10.05029296875 1.04736328125 10.0645751953125 1.0506591796875 Q 10.078857421875 1.053955078125 10.0909423828125 1.0579833984375 Q 10.10302734375 1.06201171875 10.111083984375 1.0689697265625 Q 10.119140625 1.075927734375 10.119140625 1.092041015625 Q 10.119140625 1.1337890625 10.0982666015625 1.1634521484375 Q 10.077392578125 1.193115234375 10.037109375 1.2125244140625 Q 9.996826171875 1.23193359375 9.9378662109375 1.24072265625 Q 9.87890625 1.24951171875 9.802734375 1.24951171875 Q 9.728759765625 1.24951171875 9.6712646484375 1.24072265625 Q 9.61376953125 1.23193359375 9.57421875 1.2125244140625 Q 9.53466796875 1.193115234375 9.51416015625 1.1634521484375 Q 9.49365234375 1.1337890625 9.49365234375 1.092041015625 Q 9.49365234375 1.075927734375 9.4991455078125 1.0689697265625 Q 9.504638671875 1.06201171875 9.5126953125 1.058349609375 Q 9.520751953125 1.0546875 9.5302734375 1.0517578125 Q 9.539794921875 1.048828125 9.5478515625 1.0404052734375 Q 9.555908203125 1.031982421875 9.5614013671875 1.0162353515625 Q 9.56689453125 1.00048828125 9.56689453125 0.970458984375 L 9.56689453125 0.655517578125 Q 9.56689453125 0.61083984375 9.5614013671875 0.57568359375 Q 9.555908203125 0.54052734375 9.54345703125 0.516357421875 Q 9.531005859375 0.4921875 9.5101318359375 0.4793701171875 Q 9.4892578125 0.466552734375 9.457763671875 0.466552734375 Q 9.409423828125 0.466552734375 9.3878173828125 0.4969482421875 Q 9.3662109375 0.52734375 9.3662109375 0.57568359375 L 9.3662109375 0.961669921875 Q 9.3662109375 0.9931640625 9.3720703125 1.0107421875 Q 9.3779296875 1.0283203125 9.3870849609375 1.0374755859375 Q 9.396240234375 1.046630859375 9.4068603515625 1.05029296875 Q 9.41748046875 1.053955078125 9.4266357421875 1.0579833984375 Q 9.435791015625 1.06201171875 9.441650390625 1.0689697265625 Q 9.447509765625 1.075927734375 9.447509765625 1.092041015625 Q 9.447509765625 1.1337890625 9.4310302734375 1.1634521484375 Q 9.41455078125 1.193115234375 9.3797607421875 1.2125244140625 Q 9.344970703125 1.23193359375 9.2904052734375 1.24072265625 Q 9.23583984375 1.24951171875 9.158935546875 1.24951171875 Q 9.0849609375 1.24951171875 9.0274658203125 1.24072265625 Q 8.969970703125 1.23193359375 8.930419921875 1.2125244140625 Q 8.890869140625 1.193115234375 8.870361328125 1.1634521484375 Q 8.849853515625 1.1337890625 8.849853515625 1.092041015625 Q 8.849853515625 1.075927734375 8.8553466796875 1.0689697265625 Q 8.86083984375 1.06201171875 8.868896484375 1.058349609375 Q 8.876953125 1.0546875 8.8868408203125 1.0517578125 Q 8.896728515625 1.048828125 8.90478515625 1.0404052734375 Q 8.912841796875 1.031982421875 8.9183349609375 1.0162353515625 Q 8.923828125 1.00048828125 8.923828125 0.970458984375 L 8.923828125 0.655517578125 Q 8.923828125 0.566162109375 8.9022216796875 0.51708984375 Q 8.880615234375 0.468017578125 8.824951171875 0.468017578125 Q 8.802978515625 0.468017578125 8.783203125 0.47607421875 Q 8.763427734375 0.484130859375 8.748046875 0.4991455078125 Q 8.732666015625 0.51416015625 8.723876953125 0.53466796875 Q 8.715087890625 0.55517578125 8.715087890625 0.579345703125 L 8.715087890625 0.967529296875 Q 8.715087890625 0.99755859375 8.7213134765625 1.014404296875 Q 8.7275390625 1.03125 8.737060546875 1.0396728515625 Q 8.74658203125 1.048095703125 8.7579345703125 1.0513916015625 Q 8.769287109375 1.0546875 8.77880859375 1.058349609375 Q 8.788330078125 1.06201171875 8.7945556640625 1.0689697265625 Q 8.80078125 1.075927734375 8.80078125 1.092041015625 Q 8.80078125 1.175537109375 8.7176513671875 1.2125244140625 Q 8.634521484375 1.24951171875 8.478515625 1.24951171875 Q 8.403076171875 1.24951171875 8.34375 1.24072265625 Q 8.284423828125 1.23193359375 8.2437744140625 1.2125244140625 Q 8.203125 1.193115234375 8.1815185546875 1.1634521484375 Q 8.159912109375 1.1337890625 8.159912109375 1.092041015625 Q 8.159912109375 1.075927734375 8.16796875 1.0689697265625 Q 8.176025390625 1.06201171875 8.187744140625 1.058349609375 Q 8.199462890625 1.0546875 8.21337890625 1.0517578125 Q 8.227294921875 1.048828125 8.239013671875 1.0404052734375 Q 8.250732421875 1.031982421875 8.2587890625 1.0162353515625 Q 8.266845703125 1.00048828125 8.266845703125 0.970458984375 L 8.266845703125 0.579345703125 Q 8.266845703125 0.550048828125 8.2587890625 0.533935546875 Q 8.250732421875 0.517822265625 8.239013671875 0.5093994140625 Q 8.227294921875 0.5009765625 8.21337890625 0.498046875 Q 8.199462890625 0.4951171875 8.187744140625 0.491455078125 Q 8.176025390625 0.48779296875 8.16796875 0.4808349609375 Q 8.159912109375 0.473876953125 8.159912109375 0.457763671875 Q 8.159912109375 0.416015625 8.18115234375 0.3863525390625 Q 8.202392578125 0.356689453125 8.2430419921875 0.3372802734375 Q 8.28369140625 0.31787109375 8.34228515625 0.30908203125 Q 8.40087890625 0.30029296875 8.474853515625 0.30029296875 Q 8.508544921875 0.30029296875 8.53564453125 0.3035888671875 Q 8.562744140625 0.306884765625 8.5836181640625 0.3123779296875 Q 8.6044921875 0.31787109375 8.619873046875 0.3248291015625 Q 8.63525390625 0.331787109375 8.646240234375 0.339111328125 Q 8.671875 0.356689453125 8.68212890625 0.3779296875 Q 8.718017578125 0.350830078125 8.7685546875 0.328857421875 Q 8.811767578125 0.309814453125 8.8740234375 0.29443359375 Q 8.936279296875 0.279052734375 9.019775390625 0.279052734375 Q 9.106201171875 0.279052734375 9.1728515625 0.3035888671875 Q 9.239501953125 0.328125 9.279052734375 0.369140625 M 10.705810546875 0.466552734375 Q 10.682373046875 0.466552734375 10.661865234375 0.4771728515625 Q 10.641357421875 0.48779296875 10.6263427734375 0.509765625 Q 10.611328125 0.53173828125 10.6029052734375 0.5657958984375 Q 10.594482421875 0.599853515625 10.594482421875 0.646728515625 L 10.828125 0.646728515625 Q 10.828125 0.595458984375 10.820068359375 0.5606689453125 Q 10.81201171875 0.52587890625 10.796630859375 0.5050048828125 Q 10.78125 0.484130859375 10.7581787109375 0.475341796875 Q 10.735107421875 0.466552734375 10.705810546875 0.466552734375 M 10.651611328125 0.279052734375 Q 10.749755859375 0.279052734375 10.8284912109375 0.308349609375 Q 10.9072265625 0.337646484375 10.9625244140625 0.388916015625 Q 11.017822265625 0.440185546875 11.0474853515625 0.5093994140625 Q 11.0771484375 0.57861328125 11.0771484375 0.658447265625 Q 11.0771484375 0.69140625 11.0679931640625 0.709716796875 Q 11.058837890625 0.72802734375 11.0419921875 0.73681640625 Q 11.025146484375 0.74560546875 11.000244140625 0.747802734375 Q 10.975341796875 0.75 10.94384765625 0.75 L 10.591552734375 0.75 Q 10.591552734375 0.83056640625 10.6080322265625 0.8807373046875 Q 10.62451171875 0.930908203125 10.65380859375 0.958740234375 Q 10.68310546875 0.986572265625 10.72412109375 0.9964599609375 Q 10.76513671875 1.00634765625 10.81494140625 1.00634765625 Q 10.84130859375 1.00634765625 10.8695068359375 1.001220703125 Q 10.897705078125 0.99609375 10.9237060546875 0.988037109375 Q 10.94970703125 0.97998046875 10.9716796875 0.97119140625 Q 10.99365234375 0.96240234375 11.00830078125 0.954345703125 Q 11.02001953125 0.94775390625 11.031005859375 0.94775390625 Q 11.0478515625 0.94775390625 11.057373046875 0.9620361328125 Q 11.06689453125 0.976318359375 11.06689453125 0.993896484375 Q 11.06689453125 0.999755859375 11.066162109375 1.0048828125 Q 11.0654296875 1.010009765625 11.063232421875 1.01513671875 Q 11.0419921875 1.0693359375 11.00537109375 1.115478515625 Q 10.96875 1.16162109375 10.9163818359375 1.1956787109375 Q 10.864013671875 1.229736328125 10.795166015625 1.248779296875 Q 10.726318359375 1.267822265625 10.640625 1.267822265625 Q 10.55859375 1.267822265625 10.4908447265625 1.2484130859375 Q 10.423095703125 1.22900390625 10.3685302734375 1.1942138671875 Q 10.31396484375 1.159423828125 10.27294921875 1.112548828125 Q 10.23193359375 1.065673828125 10.204833984375 1.0103759765625 Q 10.177734375 0.955078125 10.1641845703125 0.8946533203125 Q 10.150634765625 0.834228515625 10.150634765625 0.772705078125 Q 10.150634765625 0.71044921875 10.16455078125 0.6492919921875 Q 10.178466796875 0.588134765625 10.206298828125 0.533203125 Q 10.234130859375 0.478271484375 10.27587890625 0.4317626953125 Q 10.317626953125 0.38525390625 10.373291015625 0.3511962890625 Q 10.428955078125 0.317138671875 10.49853515625 0.298095703125 Q 10.568115234375 0.279052734375 10.651611328125 0.279052734375 M 11.654296875 0.884765625 Q 11.654296875 0.908935546875 11.65576171875 0.9312744140625 Q 11.6572265625 0.95361328125 11.66455078125 0.97119140625 Q 11.671875 0.98876953125 11.687255859375 0.9990234375 Q 11.70263671875 1.00927734375 11.729736328125 1.00927734375 Q 11.767822265625 1.00927734375 11.7960205078125 0.9993896484375 Q 11.82421875 0.989501953125 11.854248046875 0.973388671875 Q 11.865966796875 0.966796875 11.876220703125 0.966796875 Q 11.89306640625 0.966796875 11.9029541015625 0.9814453125 Q 11.912841796875 0.99609375 11.912841796875 1.014404296875 Q 11.912841796875 1.02685546875 11.9091796875 1.034912109375 Q 11.887939453125 1.089111328125 11.8546142578125 1.13232421875 Q 11.8212890625 1.175537109375 11.7777099609375 1.20556640625 Q 11.734130859375 1.235595703125 11.68212890625 1.251708984375 Q 11.630126953125 1.267822265625 11.57080078125 1.267822265625 Q 11.48876953125 1.267822265625 11.43017578125 1.2469482421875 Q 11.37158203125 1.22607421875 11.331298828125 1.1912841796875 Q 11.291015625 1.156494140625 11.266845703125 1.1107177734375 Q 11.24267578125 1.06494140625 11.2298583984375 1.0147705078125 Q 11.217041015625 0.964599609375 11.2130126953125 0.9136962890625 Q 11.208984375 0.86279296875 11.208984375 0.8173828125 L 11.208984375 0.44677734375 L 11.173095703125 0.44677734375 Q 11.14599609375 0.44677734375 11.130615234375 0.4310302734375 Q 11.115234375 0.415283203125 11.115234375 0.396240234375 Q 11.115234375 0.37353515625 11.1357421875 0.358154296875 Q 11.221435546875 0.296630859375 11.29248046875 0.2391357421875 Q 11.363525390625 0.181640625 11.414794921875 0.13623046875 Q 11.474853515625 0.08349609375 11.5224609375 0.037353515625 Q 11.54150390625 0.018310546875 11.561279296875 0.0091552734375 Q 11.5810546875 0 11.599365234375 0 Q 11.6220703125 0 11.637451171875 0.015380859375 Q 11.65283203125 0.03076171875 11.65283203125 0.06298828125 L 11.65283203125 0.30029296875 L 11.83154296875 0.30029296875 Q 11.84033203125 0.30029296875 11.8524169921875 0.3013916015625 Q 11.864501953125 0.302490234375 11.87548828125 0.30908203125 Q 11.886474609375 0.315673828125 11.8941650390625 0.3299560546875 Q 11.90185546875 0.34423828125 11.90185546875 0.37060546875 Q 11.90185546875 0.399169921875 11.89453125 0.41455078125 Q 11.88720703125 0.429931640625 11.876220703125 0.437255859375 Q 11.865234375 0.444580078125 11.8531494140625 0.4456787109375 Q 11.841064453125 0.44677734375 11.83154296875 0.44677734375 L 11.65283203125 0.44677734375 L 11.654296875 0.884765625" fill="#202c34" fill-rule="nonzero"></path></g><g></g><g clip-path="url(#SvgjsClipPath1226)"><g clip-path="url(#a2e4c37f2-4bc7-4de6-a423-070e814c00e09f5486ce-6b26-4405-9197-526d8bc0df42)"><path d=" M -2.1821450908521376 0.0004247724501652006 C -2.1821450908521376 -0.019305701070401693 -2.1981397999056176 -0.03530041012388174 -2.2178702734261844 -0.03530041012388174 L -2.650619941646836 -0.03530041012388174 C -2.6703504151674027 -0.03530041012388174 -2.6863451242208827 -0.019305701070401693 -2.6863451242208827 0.0004247724501652006 C -2.6863451242208827 0.02015524597073215 -2.6703504151674027 0.036149955024212144 -2.650619941646836 0.036149955024212144 L -2.2178702734261844 0.036149955024212144 C -2.198128496234977 0.036149955024212144 -2.1821450908521376 0.0201665496413726 -2.1821450908521376 0.0004247724501652006" fill="#202c34" transform="matrix(1,0,0,1,0,0)" fill-rule="nonzero"></path></g><g clip-path="url(#a2e4c37f2-4bc7-4de6-a423-070e814c00e09f5486ce-6b26-4405-9197-526d8bc0df42)"><path d=" M -2.166905099673151 -0.15717903876667072 L -1.9289712536510881 -0.15717903876667072 C -1.9092407801305211 -0.15717903876667072 -1.8932460710770411 -0.1731737478201507 -1.8932460710770411 -0.19290422134071766 C -1.8932460710770411 -0.21263469486128456 -1.9092407801305211 -0.22862940391476455 -1.9289712536510881 -0.22862940391476455 L -2.166905099673151 -0.22862940391476455 C -2.1866355731937177 -0.22862940391476455 -2.2026302822471977 -0.21263469486128456 -2.2026302822471977 -0.19290422134071766 C -2.2026302822471977 -0.17317374782015074 -2.1866355731937177 -0.15717903876667072 -2.166905099673151 -0.15717903876667072" fill="#202c34" transform="matrix(1,0,0,1,0,0)" fill-rule="nonzero"></path></g><g clip-path="url(#a2e4c37f2-4bc7-4de6-a423-070e814c00e09f5486ce-6b26-4405-9197-526d8bc0df42)"><path d=" M -0.5542331875704809 0.7338854861293549 L -2.1971372772965063 0.7338854861293549 C -2.2421398074763976 0.7329029790123363 -2.278115435847994 0.6961516916327684 -2.2781378919460127 0.6511384431546736 C -2.278160348044031 0.6061251946765784 -2.2422214063530648 0.5693380307342455 -2.1972198788747126 0.5683106226156509 L -0.5542331875704809 0.5683106226156509 C -0.5092313380526963 0.5693158270912074 -0.47327432490257726 0.6060849796490515 -0.47327432490257726 0.6510980543725029 C -0.47327432490257726 0.6961111290959539 -0.5092313380526958 0.7328802816537983 -0.5542331875704805 0.7338854861293549 M -1.1291814726725695 0.9911068006624926 L -1.2756753716207134 1.1044774667500752 L -1.1730016099107938 0.8867397065993523 C -1.1610656818600427 0.8612571197228354 -1.1596614550305426 0.8320574618270538 -1.1691606365242198 0.8055423552229635 L -0.9838026950302055 0.8055423552229635 Z M -1.521249863626821 1.0998930791596484 L -1.5831597464921345 1.0713129331004108 C -1.5999991958669766 0.9903388142586858 -1.6259498339661311 0.9115308967424063 -1.6605161244819497 0.8363940446828626 C -1.6668737477065836 0.8255586769773535 -1.6740390831694876 0.8152179520029506 -1.6819512340263774 0.8054597536447583 L -1.3711627960267212 0.8054597536447583 Z M -1.4093660259469447 -0.315154557085433 C -1.4093888357429207 -0.3359114714249918 -1.3925805229919213 -0.35275676616223944 -1.3718236086523652 -0.35277957595821535 C -1.3510666943128093 -0.3528023857541912 -1.3342213995755616 -0.3359940730031918 -1.3341985897795858 -0.315237158663636 C -1.3341876301087547 -0.3052693350399346 -1.3381368249413736 -0.2957054144686777 -1.3451773952221948 -0.28864935338415837 C -1.352217965503016 -0.28159329229963903 -1.3617731834372317 -0.277623087424707 -1.371741007074163 -0.2776121397908565 L -1.3717823078632654 -0.2776121397908565 C -1.3925070070228798 -0.27761208973718154 -1.409320477157643 -0.29438860719033 -1.4093660259469443 -0.31511325629633014 Z M -0.5542331875704809 0.496860257467557 L -0.5625346461801723 0.496860257467557 C -0.5804591886508503 0.1018595104869966 -0.880757226218359 -0.2225994887057348 -1.273197324274537 -0.27100401353438563 C -1.2665891980180657 -0.28479847709476896 -1.2630786309443156 -0.2998732651173437 -1.262789525420595 -0.315154557085433 C -1.2639453623264671 -0.3745340964763082 -1.3124121706117056 -0.4220666678296858 -1.3718029582578168 -0.4220666678296858 C -1.431193745903928 -0.4220666678296858 -1.479660554189166 -0.3745340964763084 -1.4808163910950385 -0.31515455708543316 C -1.4805272855713179 -0.2999558666955496 -1.4770167184975675 -0.28500498104028354 -1.4704911938193024 -0.27129311905810605 C -1.7231189871170145 -0.239913903378959 -1.9465437364857352 -0.0922170337716513 -2.0743913320825556 0.12792030841095492 C -2.0842793786388167 0.14501625049611644 -2.078436224811187 0.16689109536347702 -2.061340282726025 0.17677914191973798 C -2.0442443406408635 0.18666718847599895 -2.022369495773503 0.18082403464836938 -2.012481449217242 0.16372809256320753 C -1.8084968518377993 -0.18988926373620266 -1.3564597151060727 -0.3111483805424474 -1.0028836595957658 -0.10716378316300496 C -0.7852441554407903 0.018387871920027832 -0.6462916870790987 0.2459046486542129 -0.6339850113282663 0.496860257467557 L -2.109992612289293 0.496860257467557 C -2.107182649756387 0.4386888383178491 -2.0974779118962057 0.38105655933960025 -2.0810820599172324 0.32517287716661725 L -1.928971253651088 0.32517287716661725 C -1.909908024724195 0.32425596256302824 -1.8949231015183734 0.3085329619344074 -1.8949231015183734 0.28944769459257014 C -1.8949231015183734 0.2703624272507328 -1.9099080247241949 0.2546394266221119 -1.928971253651088 0.25372251201852314 L -2.5059019766301183 0.25372251201852314 C -2.5256324501506855 0.25372251201852314 -2.5416271592041655 0.26971722107200313 -2.5416271592041655 0.28944769459257014 C -2.5416271592041655 0.30917816811313703 -2.5256324501506855 0.325172877166617 -2.5059019766301183 0.325172877166617 L -2.155423480302532 0.325172877166617 C -2.170244809701553 0.38129993271319385 -2.1789684370662314 0.43886202629250914 -2.1814429774373867 0.496860257467557 L -2.197137277296506 0.496860257467557 C -2.252842680780239 0.49594867570394885 -2.30471116187708 0.5251452338927974 -2.332830339799379 0.5732413334391362 C -2.3609495177216777 0.6213374329854753 -2.3609495177216777 0.6808586757595314 -2.3328303397993784 0.7289547753058703 C -2.304711161877079 0.7770508748522089 -2.252842680780238 0.8062474330410574 -2.197137277296505 0.8053358512774489 L -1.9219914202926902 0.8053358512774489 C -1.931862308888294 0.8519231413855701 -1.9065862259572923 0.9139982274072955 -1.8810210375025695 0.9753298992251682 C -1.8454203074474842 1.044195796363982 -1.837742798887325 1.1241365598689945 -1.859585927958142 1.1985193635374798 C -1.862558154104093 1.2054206439852042 -1.8659939678083008 1.212112891561673 -1.8698698244447747 1.2185502462524076 C -1.8933320908390172 1.2576476681304465 -1.9100969828134948 1.3003904651544684 -1.919472072157411 1.3450132624856237 C -1.9347592079211953 1.4474792080097365 -1.9232626623010864 1.552157532424512 -1.886101034562232 1.6488631679159855 C -1.8825853973115567 1.6576978555004414 -1.8756891620689116 1.6647640636516976 -1.866942675720665 1.6684937267133169 C -1.8581961893724186 1.6722233897749361 -1.8483228821631341 1.6723080237507881 -1.8395137444541105 1.668728847474502 C -1.8307224820592753 1.6652193935931883 -1.8236858412987826 1.658360721619685 -1.819952381580641 1.6496622252224382 C -1.8162189218624993 1.6409637288251915 -1.8160945958622166 1.6311382396527376 -1.8196067641064912 1.6223480613118952 L -1.8196067641064912 1.6223067605227923 C -1.8512970023015134 1.5385482031517743 -1.8615198014824808 1.4481900170577826 -1.8493433322606112 1.359468538671654 C -1.8414188004457337 1.322084711827259 -1.8273211998688863 1.2862823895702156 -1.8076295352666374 1.253532014622602 C -1.800980108221063 1.242835110244939 -1.7954871032703714 1.2314360924525265 -1.7912744227818713 1.2195414651908782 C -1.7641313678877655 1.129024183797298 -1.7726580373669978 1.0315511995944977 -1.8151049780942703 0.947121460267857 C -1.831501391368139 0.9078857106200597 -1.8655332415889654 0.8262340505635386 -1.8492607306824052 0.8157023493422877 C -1.8343744152754204 0.805989863254956 -1.8161030927839543 0.802949635004327 -1.798873767976813 0.80731828915439 C -1.765677910075888 0.8179525749278216 -1.73800577538214 0.8412327783243312 -1.721847796299822 0.87211922725691 C -1.689128696173019 0.946489419156137 -1.6645762235191868 1.024190447955151 -1.6486214972203022 1.1038579549135297 C -1.6462193658486475 1.1147960366653453 -1.638838259973826 1.123980394078943 -1.628673216083579 1.1286797291644006 L -1.5535057799162204 1.1633723920108738 L -1.5882397435517968 1.2313947916634234 C -1.6321011815791238 1.248658521508454 -1.76025753016556 1.3082142593948998 -1.76025753016556 1.4146463929131876 C -1.76025753016556 1.4343768664337544 -1.74426282111208 1.4503715754872346 -1.7245323475915133 1.4503715754872346 C -1.7048018740709465 1.4503715754872346 -1.6888071650174665 1.4343768664337544 -1.6888071650174663 1.4146463929131876 C -1.6888071650174663 1.3534386234626241 -1.5871246222460171 1.305818813626929 -1.5515233420392793 1.293924186365281 C -1.5426068110652233 1.2909757506680646 -1.5352055033060714 1.284642367074562 -1.53091424827691 1.276288749418324 L -1.3002493411369653 0.8242929134757 C -1.2942607267170385 0.8126460909486699 -1.2822834978771847 0.8052945504883458 -1.2691911477315514 0.8052532496992428 C -1.2571884737226775 0.8052167472049188 -1.2460196168673194 0.8113869548382988 -1.239661083522946 0.8215670613949058 C -1.2330218307105358 0.8318876186401807 -1.2322241005827728 0.8449172107269756 -1.237554743278696 0.8559706187176586 L -1.399288633405826 1.198932371428509 C -1.4077041170981037 1.2167936124299044 -1.4000735705942926 1.2380963245821908 -1.3822314075063102 1.246552181264204 C -1.370389882037241 1.2520826426723755 -1.3564643810473225 1.2506376933108216 -1.346010615463028 1.242793809455836 C -1.3399238109488434 1.2421019182823765 -1.334133622069394 1.2397915473501826 -1.3292424950872326 1.236103081621159 L -1.0818920691496985 1.0447978264963205 C -1.079573722492314 1.0429887917835374 -1.0774800489009826 1.0409089835802279 -1.075655649995154 1.0386027081308788 L -0.9019032302390668 0.8167761698589644 C -0.8957633158499725 0.8088588662462002 -0.8859929366235875 0.8046423433034455 -0.8760203017406467 0.8056060853299483 C -0.866047666857706 0.806569827356451 -0.8572655085467669 0.812579242582224 -0.8527552912065632 0.8215257606058031 C -0.8474451111657793 0.8314681352005076 -0.8482127357342071 0.8435582221532467 -0.8547377290835041 0.8527491571676289 L -1.1272816363738345 1.2421742976192918 L -1.383140024866575 1.4830818004567667 C -1.4242256383376626 1.5133165886063749 -1.4470778876029018 1.5623991103593031 -1.4437695832696975 1.6133031884983504 C -1.4436452163505353 1.6194086530133553 -1.443852023919386 1.6255163698800792 -1.4443890951062415 1.6315994380709538 C -1.4465880236368833 1.6511810085746585 -1.4324989881300478 1.668838526827976 -1.412917893809798 1.6710416916642665 L -1.412835292231592 1.6710416916642665 C -1.411513666980298 1.6712481956097816 -1.4101920417290035 1.6714133987661932 -1.4088291156886066 1.671496000344399 C -1.390656768483311 1.6714546995552961 -1.3754167773043244 1.6577841383622212 -1.3733930386382802 1.639694392735132 C -1.372525722067118 1.6310212270235134 -1.3721540149651916 1.6223067605227923 -1.3723192181216035 1.6135922940220708 C -1.375296884993782 1.5829712855793399 -1.3610443195277824 1.553225417921506 -1.3353137110853655 1.5363598183995648 L -1.075614349206051 1.2916113421755162 C -1.0738344794689176 1.2899297504510792 -1.0722419945278323 1.2880603116071965 -1.0708647584592124 1.2860357356466185 L -0.7962145109246319 0.8935543368013379 C -0.7784149481413787 0.8678399985476095 -0.7736199041448677 0.8352978369024984 -0.7832460631463074 0.8055423552229635 L -0.5542331875704809 0.8055423552229635 C -0.4700339375857161 0.8041644906713123 -0.40249873891608434 0.7355150814651847 -0.40249873891608434 0.6513045583180177 C -0.40249873891608434 0.5670940351708507 -0.47003393758571566 0.4984446259647227 -0.5542331875704805 0.4970667614130716 Z" fill="#202c34" transform="matrix(1,0,0,1,0,0)" fill-rule="nonzero"></path></g></g></g><defs><clipPath id="SvgjsClipPath1226"><path d=" M -2.6863451242208827 -0.42194298080529613 h 2.2863451242208828 v 2.0933976803605923 h -2.2863451242208828 Z"></path></clipPath><clipPath id="a2e4c37f2-4bc7-4de6-a423-070e814c00e09f5486ce-6b26-4405-9197-526d8bc0df42"><path d=" M -2.6863451242208827 1.6714546995552961 L -0.40001604106008637 1.6714546995552961 L -0.40001604106008637 -0.42191709691654433 L -2.6863451242208827 -0.42191709691654433 Z"></path></clipPath></defs></svg>